<?xml version="1.0" encoding="UTF-8"?>
<!DOCTYPE svg PUBLIC "-//W3C//DTD SVG 1.1//EN" "http://www.w3.org/Graphics/SVG/1.1/DTD/svg11.dtd">
<svg xmlns="http://www.w3.org/2000/svg" version="1.1" width="128px" height="128px" style="shape-rendering:geometricPrecision; text-rendering:geometricPrecision; image-rendering:optimizeQuality; fill-rule:evenodd; clip-rule:evenodd" xmlns:xlink="http://www.w3.org/1999/xlink">
<g><path style="opacity:0.646" fill="#6666ff" d="M 27.5,-0.5 C 31.8333,-0.5 36.1667,-0.5 40.5,-0.5C 44.492,0.862693 48.6587,1.86269 53,2.5C 53.8275,6.87132 53.6609,11.2047 52.5,15.5C 51.5745,14.3595 50.7412,14.3595 50,15.5C 49.2195,16.9437 49.3861,18.277 50.5,19.5C 57.0302,18.1819 63.5302,18.1819 70,19.5C 70.4997,26.8258 70.6663,34.1591 70.5,41.5C 61.8404,42.799 53.1737,42.799 44.5,41.5C 44.6641,44.1873 44.4974,46.854 44,49.5C 43,48.1667 42,48.1667 41,49.5C 40.501,53.8206 40.3343,58.1539 40.5,62.5C 39.1667,62.5 37.8333,62.5 36.5,62.5C 36.8266,67.2137 36.4933,71.8804 35.5,76.5C 34.5745,75.3595 33.7412,75.3595 33,76.5C 32.6608,79.036 32.1608,81.536 31.5,84C 32.0069,86.3413 33.1735,86.8413 35,85.5C 35.4955,83.5273 35.6621,81.5273 35.5,79.5C 36.5,79.5 37.5,79.5 38.5,79.5C 38.5,78.5 38.5,77.5 38.5,76.5C 40.1667,76.5 41.8333,76.5 43.5,76.5C 43.2965,74.6096 43.9632,73.1096 45.5,72C 49.211,71.8253 52.8776,71.3253 56.5,70.5C 57.6405,69.5745 57.6405,68.7412 56.5,68C 62.5,67.3333 68.5,67.3333 74.5,68C 73.7636,70.0206 74.5969,71.5206 77,72.5C 77.3333,55.1667 77.6667,37.8333 78,20.5C 78.5,20 79,19.5 79.5,19C 94.1667,18.3333 108.833,18.3333 123.5,19C 124.416,19.3742 125.25,19.8742 126,20.5C 126.282,28.8436 125.948,37.1769 125,45.5C 118.21,46.7404 111.377,46.7404 104.5,45.5C 104.5,58.8333 104.5,72.1667 104.5,85.5C 106.527,85.3379 108.527,85.5045 110.5,86C 110.043,86.414 109.709,86.914 109.5,87.5C 111.369,88.6236 113.369,89.4569 115.5,90C 117.037,91.1096 117.703,92.6096 117.5,94.5C 118.833,94.5 120.167,94.5 121.5,94.5C 121.5,95.8333 121.5,97.1667 121.5,98.5C 122.833,98.5 124.167,98.5 125.5,98.5C 125.171,101.228 125.837,103.562 127.5,105.5C 127.5,107.167 127.5,108.833 127.5,110.5C 126.069,111.78 125.402,113.447 125.5,115.5C 124.178,115.33 123.011,115.663 122,116.5C 121.727,118.101 121.227,119.601 120.5,121C 116.179,121.499 111.846,121.666 107.5,121.5C 107.649,120.448 107.483,119.448 107,118.5C 104.532,117.896 102.532,116.562 101,114.5C 99.951,116.107 98.451,116.773 96.5,116.5C 97.1128,119.969 95.7794,121.969 92.5,122.5C 92.5,123.5 92.5,124.5 92.5,125.5C 90.2188,125.077 88.5521,125.744 87.5,127.5C 74.1667,127.5 60.8333,127.5 47.5,127.5C 45.1617,125.96 42.4951,125.294 39.5,125.5C 40.2436,122.05 38.9103,120.384 35.5,120.5C 35.8719,117.978 35.0386,115.978 33,114.5C 32.6667,114.833 32.3333,115.167 32,115.5C 30.297,107.353 30.1303,99.1864 31.5,91C 31.0801,87.4654 29.9134,86.9654 28,89.5C 27.6667,93.5 27.3333,97.5 27,101.5C 26,98.8333 25,98.8333 24,101.5C 23.7931,105.089 23.2931,108.589 22.5,112C 15.8333,112.667 9.16667,112.667 2.5,112C 1.94727,110.122 0.947266,108.622 -0.5,107.5C -0.5,103.833 -0.5,100.167 -0.5,96.5C 0.221579,96.0825 0.721579,95.4158 1,94.5C 1.49796,91.5184 1.66463,88.5184 1.5,85.5C 2.82207,85.67 3.98873,85.3366 5,84.5C 5.33333,80.5 5.66667,76.5 6,72.5C 7,73.8333 8,73.8333 9,72.5C 9.49885,68.5138 9.66551,64.5138 9.5,60.5C 10.8333,60.5 12.1667,60.5 13.5,60.5C 13.3345,56.4862 13.5012,52.4862 14,48.5C 15.1369,47.636 16.4702,46.636 18,45.5C 18.49,44.2068 18.6567,42.8734 18.5,41.5C 12.8251,42.7683 7.15842,42.7683 1.5,41.5C 1.33368,34.1591 1.50034,26.8258 2,19.5C 8.74449,18.5212 15.5778,18.1878 22.5,18.5C 22.3505,17.448 22.5172,16.448 23,15.5C 24,16.8333 25,16.8333 26,15.5C 26.2151,10.0849 26.7151,4.75155 27.5,-0.5 Z M 57.5,94.5 C 64.1667,94.5 70.8333,94.5 77.5,94.5C 77.6621,96.5273 77.4955,98.5273 77,100.5C 75.9887,101.337 74.8221,101.67 73.5,101.5C 73.5,103.5 73.5,105.5 73.5,107.5C 68.1244,108.106 63.1244,107.106 58.5,104.5C 57.5827,101.242 57.2493,97.909 57.5,94.5 Z"/></g>
</svg>
